<svg width="80" height="69" viewBox="0 0 80 69" fill="none" xmlns="http://www.w3.org/2000/svg">
<g opacity="0.3" clip-path="url(#clip0)">
<path fill-rule="evenodd" clip-rule="evenodd" d="M0.350845 57.7121C12.2805 51.7911 18.2452 44.834 18.2452 36.8406C13.1605 36.2485 8.95581 34.1515 5.63116 30.5495C2.3065 26.9476 0.644196 22.7783 0.644196 18.0414C0.644196 13.0086 2.25761 8.76524 5.48448 5.31131C8.71136 1.85738 12.7693 0.13044 17.6585 0.13044C23.1344 0.13044 27.8769 2.37546 31.886 6.86557C35.8952 11.3557 37.8997 16.8079 37.8997 23.2223C37.8997 42.4656 27.2414 57.5147 5.92451 68.3699L0.350845 57.7121ZM42.4511 57.7121C54.4785 51.7911 60.4922 44.834 60.4922 36.8406C55.3096 36.2485 51.0561 34.1515 47.7314 30.5495C44.4068 26.9476 42.7445 22.7783 42.7445 18.0414C42.7445 13.0086 44.3823 8.76524 47.6581 5.31131C50.9339 1.85738 55.0163 0.13044 59.9055 0.13044C65.3814 0.13044 70.0994 2.37546 74.0596 6.86557C78.0199 11.3557 80 16.8079 80 23.2223C80 42.4656 69.3906 57.5147 48.1714 68.3699L42.4511 57.7121Z" fill="#828282"/>
</g>
<defs>
<clipPath id="clip0">
<rect width="80" height="68.2394" fill="white" transform="translate(80 68.3699) rotate(-180)"/>
</clipPath>
</defs>
</svg>
